<svg height="512" viewBox="0 0 512 512" width="512" xmlns="http://www.w3.org/2000/svg"><g id="flat"><path d="m344 328h64v80h-64z" fill="#95170c"/><path d="m344 328h64v16h-64z" fill="#620f08"/><path d="m112 328h88v88h-88z" fill="#95170c"/><path d="m112 328h88v16h-88z" fill="#620f08"/><path d="m448 408v-128h24v128z" fill="#f92714"/><path d="m416 408v-128h-24v128z" fill="#f92714"/><path d="m360 408v-128h-24v128z" fill="#f92714"/><path d="m320 288h152v40h-152z" fill="#ccc"/><path d="m320 288h152v16h-152z" fill="#b3b3b3"/><g fill="#f92714"><path d="m368 296h16v32h-16z"/><path d="m424 296h16v32h-16z"/><path d="m320 320h152v16h-152z"/><path d="m176 400v-112h-24v112z"/><path d="m120 400v-112h-24v112z"/><path d="m64 400h-24v-112h24z"/></g><path d="m40 288h152v40h-152z" fill="#ccc"/><path d="m40 288h152v16h-152z" fill="#b3b3b3"/><path d="m72 296h16v32h-16z" fill="#f92714"/><path d="m128 296h16v32h-16z" fill="#f92714"/><path d="m40 320h152v16h-152z" fill="#f92714"/><path d="m176 264h160v144h-160z" fill="#95170c"/><path d="m176 264h160v24h-160z" fill="#620f08"/><path d="m96 128h312v136h-312z" fill="#ccc"/><path d="m96 128h312v32h-312z" fill="#b3b3b3"/><path d="m96 200h312v16h-312z" fill="#b3b3b3"/><path d="m408 128h-312a8 8 0 0 0 -8 8v128a8 8 0 0 0 8 8h312a8 8 0 0 0 8-8v-128a8 8 0 0 0 -8-8zm-160 80v48h-64v-48zm-64-16v-48h64v48zm80 16h64v48h-64zm0-16v-48h64v48zm-160-48h64v48h-64zm0 64h64v48h-64zm296 48h-56v-48h56zm-56-64v-48h56v48z" fill="#f92714"/><path d="m128 48h256v80h-256z" fill="#763a02"/><path d="m160 48h192a72 72 0 0 0 72 72h64a32 32 0 0 1 -32 32h-400a32 32 0 0 1 -32-32h64a72 72 0 0 0 72-72z" fill="#a65a14"/><path d="m176 248v48h-128a24 24 0 0 1 -24-24l24-24z" fill="#763a02"/><path d="m336 248v48h128a24 24 0 0 0 24-24l-24-24z" fill="#763a02"/><path d="m24 392h464v72h-464z" fill="#ccc"/><path d="m168 408h184v16h-184z" fill="#b3b3b3"/><path d="m168 432h184v16h-184z" fill="#b3b3b3"/><path d="m160 48h192v16h-192z" fill="#7d440f"/><path d="m152 392h24v72h-32z" fill="#999"/><path d="m360 392h-24v72h32z" fill="#999"/><path d="m416.5 248a369.732 369.732 0 0 1 -70.378 48h117.878a24 24 0 0 0 24-24l-24-24z" fill="#592c02"/><path d="m72 296h104v-48h-56z" fill="#592c02"/><path d="m352 256a24 24 0 0 1 -24 24h-144a24 24 0 0 1 -24-24l24-24h144z" fill="#a65a14"/><path d="m152 48h16v64h-16z" fill="#592c02"/><path d="m344 48h16v64h-16z" fill="#592c02"/><path d="m112 40h288v16h-288z" fill="#592c02"/><path d="m328 232h-32.061a114.9 114.9 0 0 1 -56.313 48h88.374a24 24 0 0 0 24-24z" fill="#7d440f"/></g></svg>